<?xml version="1.0" encoding="UTF-8"?>
<svg xmlns="http://www.w3.org/2000/svg" viewBox="0 0 400 300">

  <!-- Definitions -->
  <defs>
    <linearGradient id="bg-gradient" x1="0%" y1="0%" x2="100%" y2="100%">
      <stop offset="0%" stop-color="#1a1c2c"/>
      <stop offset="100%" stop-color="#2d3748"/>
    </linearGradient>
    <filter id="glow" x="-20%" y="-20%" width="140%" height="140%">
      <feGaussianBlur stdDeviation="4" result="blur"/>
      <feComposite in="SourceGraphic" in2="blur" operator="over"/>
    </filter>
  </defs>

  <!-- Background -->
  <rect width="400" height="300" rx="15" fill="url(#bg-gradient)"/>

  <!-- Grid lines -->
  <g stroke="#ffffff22" stroke-width="1">
    <line x1="0"   y1="50"  x2="400" y2="50"/>
    <line x1="0"   y1="100" x2="400" y2="100"/>
    <line x1="0"   y1="150" x2="400" y2="150"/>
    <line x1="0"   y1="200" x2="400" y2="200"/>
    <line x1="0"   y1="250" x2="400" y2="250"/>
    <line x1="50"  y1="0"   x2="50"  y2="300"/>
    <line x1="100" y1="0"   x2="100" y2="300"/>
    <line x1="150" y1="0"   x2="150" y2="300"/>
    <line x1="200" y1="0"   x2="200" y2="300"/>
    <line x1="250" y1="0"   x2="250" y2="300"/>
    <line x1="300" y1="0"   x2="300" y2="300"/>
    <line x1="350" y1="0"   x2="350" y2="300"/>
  </g>

  <!-- Pet container -->
  <g id="pet" transform="translate(200,170)">

    <!-- Body glow & fill -->
    <ellipse cx="0" cy="0" rx="72" ry="62" fill="#4f46e544" filter="url(#glow)"/>
    <ellipse cx="0" cy="0" rx="70" ry="60" fill="#4f46e5"/>

    <!-- Body patterns -->
    <path d="M-40,-20 Q-20,-40 0,-20 Q20,-40 40,-20"
          stroke="#6366f1" stroke-width="5" fill="none"/>
    <path d="M-40,20  Q-20,40  0,20  Q20,40  40,20"
          stroke="#6366f1" stroke-width="5" fill="none"/>

    <!-- Face: eyes -->
    <g id="eyes" transform="translate(0,-20)">
      <g transform="translate(-20,0)">
        <circle cx="0" cy="0" r="12" fill="#fff"/>
        <circle cx="0" cy="0" r="6"  fill="#000"/>
        <circle cx="0" cy="-2" r="2" fill="#fff"/>
      </g>
      <g transform="translate(20,0)">
        <circle cx="0" cy="0" r="12" fill="#fff"/>
        <circle cx="0" cy="0" r="6"  fill="#000"/>
        <circle cx="0" cy="-2" r="2" fill="#fff"/>
      </g>
    </g>

    <!-- Face: mouth -->
    <path d="M-15,10 Q0,25 15,10" stroke="#fff" stroke-width="4" fill="none"/>

    <!-- Ears / antenna -->
    <path d="M-40,-30 Q-60,-70 -30,-60 Q-20,-90 -10,-60" fill="#4338ca"/>
    <path d="M40,-30  Q60,-70  30,-60 Q20,-90  10,-60" fill="#4338ca"/>
    <circle cx="-20" cy="-80" r="5" fill="#a5b4fc" filter="url(#glow)"/>
    <circle cx="20"  cy="-80" r="5" fill="#a5b4fc" filter="url(#glow)"/>

    <!-- Digital code aura -->
    <g font-family="monospace" font-size="10" fill="#a5b4fc" opacity="0.7">
      <text x="-65" y="-40">{code}</text>
      <text x="40"  y="-50">while()</text>
      <text x="-80" y="0">if()</text>
      <text x="40"  y="10">for(i)</text>
      <text x="-60" y="40">const</text>
      <text x="30"  y="40">;</text>
    </g>

    <!-- Keyboard accessory -->
    <g transform="translate(0,40)">
      <rect x="-30" y="0" width="60" height="15" rx="2"
            fill="#1e293b" stroke="#94a3b8" stroke-width="1"/>
      <rect x="-28" y="2" width="8"  height="6" rx="1" fill="#cbd5e1"/>
      <rect x="-18" y="2" width="8"  height="6" rx="1" fill="#cbd5e1"/>
      <rect x="-8"  y="2" width="8"  height="6" rx="1" fill="#cbd5e1"/>
      <rect x="2"   y="2" width="8"  height="6" rx="1" fill="#cbd5e1"/>
      <rect x="12"  y="2" width="16" height="6" rx="1" fill="#cbd5e1"/>
    </g>

  </g>

  <!-- Growth meter -->
  <g transform="translate(50,250)">
    <rect width="300" height="15" rx="7.5" fill="#1e293b"/>
    <rect width="180" height="15" rx="7.5" fill="#4ade80"/>
    <rect x="180" width="5" height="15" fill="#ffffff44">
      <animate attributeName="x" values="180;185;180" dur="2s" repeatCount="indefinite"/>
    </rect>
  </g>

  <!-- Stats & Title -->
  <g text-anchor="middle" font-family="Arial, sans-serif" fill="#fff">
<text x="200" y="280" font-size="12">
  Level {{level}} CodePet • {{growth}} Growth • {{username}}
</text>
    <text x="200" y="40" font-size="22" font-weight="bold">CodePet</text>
    <text x="200" y="60" font-size="12" fill="#cbd5e1">
      Growing with {{username}}'s code
    </text>
  </g>

</svg>
