<?xml version="1.0" encoding="UTF-8"?>
<svg xmlns="http://www.w3.org/2000/svg" viewBox="0 0 400 300">
  <defs>
    <linearGradient id="bg-gradient" x1="0%" y1="0%" x2="100%" y2="100%">
      <stop offset="0%" stop-color="#1a1c2c"/>
      <stop offset="100%" stop-color="#2d3748"/>
    </linearGradient>
    <filter id="glow" x="-20%" y="-20%" width="140%" height="140%">
      <feGaussianBlur stdDeviation="4" result="blur"/>
      <feComposite in="SourceGraphic" in2="blur" operator="over"/>
    </filter>
  </defs>

  <rect width="400" height="300" rx="15" fill="url(#bg-gradient)"/>

  <!-- Dragon body -->
  <g transform="translate(200,170)">
    <ellipse cx="0" cy="0" rx="72" ry="62" fill="#4f46e544" filter="url(#glow)"/>
    <ellipse cx="0" cy="0" rx="70" ry="60" fill="#4f46e5"/>
    <path d="M-40,-20 Q-20,-40 0,-20 Q20,-40 40,-20" stroke="#6366f1" stroke-width="5" fill="none"/>
    <path d="M-40,20 Q-20,40 0,20 Q20,40 40,20" stroke="#6366f1" stroke-width="5" fill="none"/>

    <!-- Eyes & mouth -->
    <g transform="translate(0,-20)">
      <g transform="translate(-20,0)">
        <circle cx="0" cy="0" r="12" fill="#fff"/>
        <circle cx="0" cy="0" r="6" fill="#000"/>
        <circle cx="0" cy="-2" r="2" fill="#fff"/>
      </g>
      <g transform="translate(20,0)">
        <circle cx="0" cy="0" r="12" fill="#fff"/>
        <circle cx="0" cy="0" r="6" fill="#000"/>
        <circle cx="0" cy="-2" r="2" fill="#fff"/>
      </g>
    </g>
    <path d="M-15,10 Q0,25 15,10" stroke="#fff" stroke-width="4" fill="none"/>

    <!-- Ears/antennae -->
    <path d="M-40,-30 Q-60,-70 -30,-60 Q-20,-90 -10,-60" fill="#4338ca"/>
    <path d="M40,-30 Q60,-70 30,-60 Q20,-90 10,-60" fill="#4338ca"/>
    <circle cx="-20" cy="-80" r="5" fill="#a5b4fc" filter="url(#glow)"/>
    <circle cx="20" cy="-80" r="5" fill="#a5b4fc" filter="url(#glow)"/>

    <!-- Code aura -->
    <g font-family="monospace" font-size="10" fill="#a5b4fc" opacity="0.7">
      <text x="-65" y="-40">{code}</text>
      <text x="40" y="-50">while()</text>
      <text x="-80" y="0">if()</text>
      <text x="40" y="10">for(i)</text>
      <text x="-60" y="40">const</text>
      <text x="30" y="40">;</text>
    </g>
  </g>

  <!-- Growth meter -->
  <g transform="translate(50,250)">
    <rect width="300" height="15" rx="7.5" fill="#1e293b"/>
    <rect width="{{growthWidth}}" height="15" rx="7.5" fill="#4ade80"/>
    <rect x="{{growthWidth}}" width="5" height="15" fill="#ffffff44">
      <animate attributeName="x"
               values="{{growthWidth}};{{growthPlus}};{{growthWidth}}"
               dur="2s" repeatCount="indefinite"/>
    </rect>
  </g>

  <!-- Stats text -->
  <g text-anchor="middle" font-family="Arial, sans-serif" fill="#fff">
    <text x="200" y="280" font-size="12">
      Level {{level}} CodePet • {{growth}} Growth • {{username}}
    </text>
  </g>
</svg>
